<?xml version="1.0" encoding="UTF-8"?>
<svg width="52px" height="52px" viewBox="0 0 52 52" version="1.1" xmlns="http://www.w3.org/2000/svg" xmlns:xlink="http://www.w3.org/1999/xlink">
    <!-- Generator: sketchtool 63.1 (101010) - https://sketch.com -->
    <title>749A341D-EA1E-485A-8289-C01E6CE624CE</title>
    <desc>Created with sketchtool.</desc>
    <g id="Merchant-Panel" stroke="none" stroke-width="1" fill="none" fill-rule="evenodd">
        <g id="00-Icons" transform="translate(-296.000000, -180.000000)">
            <g id="ic-inTransit-grey-" transform="translate(296.000000, 180.000000)">
                <rect id="Rectangle" fill="#FFFFFF" x="0" y="0" width="52" height="52"></rect>
                <g id="truck" transform="translate(0.000000, 6.000000)" fill-rule="nonzero">
                    <path d="M50.8333333,20 L50.8333333,33.3333325 L44.1666667,33.3333325 C44.1666667,30.1116723 41.5549944,27.5 38.3333333,27.5 C35.1116723,27.5 32.5,30.1116723 32.5,33.3333325 L29.1666667,33.3333325 L29.1666667,8.33333247 L42.9416667,8.33333247 C44.2047154,8.33242907 45.3597859,9.04547538 45.925,10.175 L50.8333333,20 Z" id="Path" fill="#C5CDD4"></path>
                    <circle id="Oval" fill="#C5CDD4" cx="38.3333333" cy="33.3333333" r="5.83333333"></circle>
                    <circle id="Oval" fill="#F5F6F7" cx="38.3333333" cy="33.3333333" r="2.5"></circle>
                    <circle id="Oval" fill="#C5CDD4" cx="10.8333333" cy="33.3333333" r="5.83333333"></circle>
                    <circle id="Oval" fill="#F5F6F7" cx="10.8333333" cy="33.3333333" r="2.5"></circle>
                    <polygon id="Path" fill="#F5F6F7" points="50.8333333 20 34.1666667 20 34.1666667 11.6666667 46.6666667 11.6666667"></polygon>
                    <path d="M50,24.1666667 L50.8333333,24.1666667 L50.8333333,29.1666667 L50,29.1666667 C48.6192881,29.1666667 47.5,28.0473785 47.5,26.6666667 L47.5,26.6666667 C47.5,25.2859548 48.6192881,24.1666667 50,24.1666667 Z" id="Path" fill="#F5F6F7"></path>
                    <path d="M29.1666667,24.1666667 L29.1666667,33.3333333 L16.6666667,33.3333333 C16.6666667,30.1116723 14.0549944,27.5 10.8333333,27.5 C7.61167229,27.5 5,30.1116723 5,33.3333333 L0.833333333,33.3333333 L0.833333333,24.1666667 L29.1666667,24.1666667 Z" id="Path" fill="#C5CDD4"></path>
                    <rect id="Rectangle" fill="#C5CDD4" x="15.8333333" y="12.5" width="13.3333333" height="11.6666667"></rect>
                    <rect id="Rectangle" fill="#C5CDD4" x="15.8333333" y="0.833333333" width="13.3333333" height="11.6666667"></rect>
                    <rect id="Rectangle" fill="#C5CDD4" x="2.5" y="12.5" width="13.3333333" height="11.6666667"></rect>
                    <rect id="Rectangle" fill="#F5F6F7" x="20.8333333" y="0.833333333" width="3.33333333" height="4.16666667"></rect>
                    <rect id="Rectangle" fill="#F5F6F7" x="20.8333333" y="12.5" width="3.33333333" height="4.16666667"></rect>
                    <rect id="Rectangle" fill="#F5F6F7" x="7.5" y="12.5" width="3.33333333" height="4.16666667"></rect>
                    <path d="M50.8333333,34.1666667 L44.1666667,34.1666667 C43.7064294,34.1666667 43.3333333,33.7935706 43.3333333,33.3333333 C43.3349663,32.4949847 43.1257752,31.6696827 42.725,30.9333333 C42.5213493,30.6734098 42.4903793,30.3177569 42.6460373,30.026545 C42.8016954,29.7353331 43.1146179,29.5634971 43.4438784,29.5884242 C43.7731388,29.6133514 44.0566248,29.8303395 44.1666667,30.1416667 C44.5732778,30.8717347 44.8390045,31.6717416 44.95,32.5 L50,32.5 L50,20.2 L45.1833333,10.55 C44.7593355,9.700702 43.8909178,9.16480114 42.9416667,9.16666667 L30,9.16666667 L30,32.5 L31.7166667,32.5 C31.9965212,30.313306 33.3392806,28.4063503 35.3036796,27.4058075 C37.2680785,26.4052648 39.6000819,26.4405247 41.5333333,27.5 C41.9383421,27.7301187 42.0801186,28.2449912 41.8499999,28.65 C41.6198813,29.0550088 41.1050088,29.1967853 40.7,28.9666667 C39.1563636,28.1371459 37.2911131,28.1762994 35.783646,29.0698659 C34.2761789,29.9634323 33.3465374,31.5809796 33.3333333,33.3333333 C33.3333333,33.7935706 32.9602373,34.1666667 32.5,34.1666667 L29.1666667,34.1666667 C28.7064294,34.1666667 28.3333333,33.7935706 28.3333333,33.3333333 L28.3333333,8.33333333 C28.3333333,7.87309604 28.7064294,7.5 29.1666667,7.5 L42.9416667,7.5 C44.5185133,7.5 45.9602394,8.39024619 46.6666667,9.8 L51.575,19.625 C51.6344866,19.7411019 51.6658845,19.8695481 51.6666667,20 L51.6666667,33.3333333 C51.6666667,33.7935706 51.2935706,34.1666667 50.8333333,34.1666667 Z" id="Path" fill="#5A6872"></path>
                    <path d="M38.3333333,40.0000567 C35.5422186,40.0114651 33.0394251,38.2829982 32.0616942,35.6687114 C31.0839633,33.0544246 31.8382973,30.1078074 33.9519463,28.2849139 C36.0655954,26.4620204 39.0910638,26.1487885 41.5333333,27.5 C41.9383421,27.7301187 42.0801186,28.2449912 41.8499999,28.65 C41.6198813,29.0550088 41.1050088,29.1967853 40.7,28.9666667 C38.5176433,27.7748079 35.7910812,28.3677826 34.300843,30.35836 C32.8106048,32.3489373 33.0096128,35.132129 34.7679085,36.8904248 C36.5262043,38.6487206 39.309396,38.8477286 41.2999733,37.3574904 C43.2905507,35.8672522 43.8835254,33.14069 42.6916667,30.9583333 C42.5457832,30.69485 42.551548,30.3735534 42.7067896,30.1154729 C42.8620312,29.8573925 43.1431646,29.7017367 43.4442896,29.7071396 C43.7454146,29.7125425 44.0207832,29.8781833 44.1666667,30.1416667 C45.291392,32.2042095 45.2475092,34.7064841 44.0511555,36.7283218 C42.8548019,38.7501595 40.6825975,39.9930722 38.3333333,40.0000567 Z" id="Path" fill="#5A6872"></path>
                    <path d="M10.8333333,40 C7.151435,40 4.16666667,37.0152317 4.16666667,33.3333333 C4.16666667,29.651435 7.151435,26.6666667 10.8333333,26.6666667 C14.5152317,26.6666667 17.5,29.651435 17.5,33.3333333 C17.5,37.0152317 14.5152317,40 10.8333333,40 Z M10.8333333,28.3333333 C8.07190958,28.3333333 5.83333333,30.5719096 5.83333333,33.3333333 C5.83333333,36.0947571 8.07190958,38.3333333 10.8333333,38.3333333 C13.5947571,38.3333333 15.8333333,36.0947571 15.8333333,33.3333333 C15.8333333,30.5719096 13.5947571,28.3333333 10.8333333,28.3333333 Z" id="Shape" fill="#5A6872"></path>
                    <path d="M50.8333333,20.8333333 L34.1666667,20.8333333 C33.7064294,20.8333333 33.3333333,20.4602373 33.3333333,20 L33.3333333,11.6666667 C33.3333333,11.2064294 33.7064294,10.8333333 34.1666667,10.8333333 L36.6666667,10.8333333 C37.126904,10.8333333 37.5,11.2064294 37.5,11.6666667 C37.5,12.126904 37.126904,12.5 36.6666667,12.5 L35,12.5 L35,19.1666667 L49.4833333,19.1666667 L46.15,12.5 L40,12.5 C39.5397627,12.5 39.1666667,12.126904 39.1666667,11.6666667 C39.1666667,11.2064294 39.5397627,10.8333333 40,10.8333333 L46.6666667,10.8333333 C46.9804652,10.8342844 47.2671248,11.0114336 47.4083333,11.2916667 L51.575,19.625 C51.7049744,19.8829319 51.692121,20.1897732 51.5410308,20.4359315 C51.3899405,20.6820898 51.122161,20.8324593 50.8333333,20.8333333 Z" id="Path" fill="#5A6872"></path>
                    <path d="M50.8333333,30 L50,30 C48.1590508,30 46.6666667,28.5076158 46.6666667,26.6666667 C46.6666667,24.8257175 48.1590508,23.3333333 50,23.3333333 L50.8333333,23.3333333 C51.2935706,23.3333333 51.6666667,23.7064294 51.6666667,24.1666667 L51.6666667,29.1666667 C51.6666667,29.626904 51.2935706,30 50.8333333,30 Z M50,25 C49.0795254,25 48.3333333,25.7461921 48.3333333,26.6666667 C48.3333333,27.5871412 49.0795254,28.3333333 50,28.3333333 L50,25 Z" id="Shape" fill="#5A6872"></path>
                    <path d="M29.1666667,34.1666667 L25.8333333,34.1666667 C25.373096,34.1666667 25,33.7935706 25,33.3333333 C25,32.873096 25.373096,32.5 25.8333333,32.5 L28.3333333,32.5 L28.3333333,25 L9.16666667,25 C8.70642938,25 8.33333333,24.626904 8.33333333,24.1666667 C8.33333333,23.7064294 8.70642938,23.3333333 9.16666667,23.3333333 L29.1666667,23.3333333 C29.626904,23.3333333 30,23.7064294 30,24.1666667 L30,33.3333333 C30,33.7935706 29.626904,34.1666667 29.1666667,34.1666667 Z" id="Path" fill="#5A6872"></path>
                    <path d="M18.3333333,34.1666667 L16.6666667,34.1666667 C16.2064294,34.1666667 15.8333333,33.7935706 15.8333333,33.3333333 C15.8333333,30.5719096 13.5947571,28.3333333 10.8333333,28.3333333 C8.07190961,28.3333333 5.83333337,30.5719096 5.83333333,33.3333333 C5.83333333,33.7935706 5.46023729,34.1666667 5,34.1666667 L0.833333333,34.1666667 C0.373096042,34.1666667 0,33.7935706 0,33.3333333 L0,24.1666667 C0,23.7064294 0.373096042,23.3333333 0.833333333,23.3333333 L5.83333333,23.3333333 C6.29357062,23.3333333 6.66666667,23.7064294 6.66666667,24.1666667 C6.66666667,24.626904 6.29357062,25 5.83333333,25 L1.66666667,25 L1.66666667,32.5 L4.21666667,32.5 C4.6282323,29.1585126 7.46659542,26.6482975 10.8333333,26.6482975 C14.2000712,26.6482975 17.0384344,29.1585126 17.45,32.5 L18.3333333,32.5 C18.7935706,32.5 19.1666667,32.873096 19.1666667,33.3333333 C19.1666667,33.7935706 18.7935706,34.1666667 18.3333333,34.1666667 Z" id="Path" fill="#5A6872"></path>
                    <path d="M22.5,34.1666667 L21.6666667,34.1666667 C21.2064294,34.1666667 20.8333333,33.7935706 20.8333333,33.3333333 C20.8333333,32.873096 21.2064294,32.5 21.6666667,32.5 L22.5,32.5 C22.9602373,32.5 23.3333333,32.873096 23.3333333,33.3333333 C23.3333333,33.7935706 22.9602373,34.1666667 22.5,34.1666667 Z" id="Path" fill="#5A6872"></path>
                    <path d="M29.1666667,25 L15.8333333,25 C15.373096,25 15,24.626904 15,24.1666667 L15,12.5 C15,12.0397627 15.373096,11.6666667 15.8333333,11.6666667 L29.1666667,11.6666667 C29.626904,11.6666667 30,12.0397627 30,12.5 L30,24.1666667 C30,24.626904 29.626904,25 29.1666667,25 Z M16.6666667,23.3333333 L28.3333333,23.3333333 L28.3333333,13.3333333 L16.6666667,13.3333333 L16.6666667,23.3333333 Z" id="Shape" fill="#5A6872"></path>
                    <path d="M29.1666667,13.3333333 L15.8333333,13.3333333 C15.373096,13.3333333 15,12.9602373 15,12.5 L15,8.33333333 C15,7.87309604 15.373096,7.5 15.8333333,7.5 C16.2935706,7.5 16.6666667,7.87309604 16.6666667,8.33333333 L16.6666667,11.6666667 L28.3333333,11.6666667 L28.3333333,1.66666667 L16.6666667,1.66666667 L16.6666667,5 C16.6666667,5.46023729 16.2935706,5.83333333 15.8333333,5.83333333 C15.373096,5.83333333 15,5.46023729 15,5 L15,0.833333333 C15,0.373096042 15.373096,0 15.8333333,0 L29.1666667,0 C29.626904,0 30,0.373096042 30,0.833333333 L30,12.5 C30,12.9602373 29.626904,13.3333333 29.1666667,13.3333333 Z" id="Path" fill="#5A6872"></path>
                    <path d="M15.8333333,25 L9.16666667,25 C8.70642938,25 8.33333333,24.626904 8.33333333,24.1666667 C8.33333333,23.7064294 8.70642938,23.3333333 9.16666667,23.3333333 L15,23.3333333 L15,13.3333333 L3.33333333,13.3333333 L3.33333333,23.3333333 L5.83333333,23.3333333 C6.29357062,23.3333333 6.66666667,23.7064294 6.66666667,24.1666667 C6.66666667,24.626904 6.29357062,25 5.83333333,25 L2.5,25 C2.03976271,25 1.66666667,24.626904 1.66666667,24.1666667 L1.66666667,12.5 C1.66666667,12.0397627 2.03976271,11.6666667 2.5,11.6666667 L15.8333333,11.6666667 C16.2935706,11.6666667 16.6666667,12.0397627 16.6666667,12.5 L16.6666667,24.1666667 C16.6666667,24.626904 16.2935706,25 15.8333333,25 Z" id="Path" fill="#5A6872"></path>
                    <path d="M24.1666667,5.83333333 L20.8333333,5.83333333 C20.373096,5.83333333 20,5.46023729 20,5 L20,0.833333333 C20,0.373096042 20.373096,0 20.8333333,0 L24.1666667,0 C24.626904,0 25,0.373096042 25,0.833333333 L25,5 C25,5.46023729 24.626904,5.83333333 24.1666667,5.83333333 Z M21.6666667,4.16666667 L23.3333333,4.16666667 L23.3333333,1.66666667 L21.6666667,1.66666667 L21.6666667,4.16666667 Z" id="Shape" fill="#5A6872"></path>
                    <path d="M24.1666667,17.5 L20.8333333,17.5 C20.373096,17.5 20,17.126904 20,16.6666667 L20,12.5 C20,12.0397627 20.373096,11.6666667 20.8333333,11.6666667 L24.1666667,11.6666667 C24.626904,11.6666667 25,12.0397627 25,12.5 L25,16.6666667 C25,17.126904 24.626904,17.5 24.1666667,17.5 Z M21.6666667,15.8333333 L23.3333333,15.8333333 L23.3333333,13.3333333 L21.6666667,13.3333333 L21.6666667,15.8333333 Z" id="Shape" fill="#5A6872"></path>
                    <path d="M10.8333333,17.5 L7.5,17.5 C7.03976271,17.5 6.66666667,17.126904 6.66666667,16.6666667 L6.66666667,12.5 C6.66666667,12.0397627 7.03976271,11.6666667 7.5,11.6666667 L10.8333333,11.6666667 C11.2935706,11.6666667 11.6666667,12.0397627 11.6666667,12.5 L11.6666667,16.6666667 C11.6666667,17.126904 11.2935706,17.5 10.8333333,17.5 Z M8.33333333,15.8333333 L10,15.8333333 L10,13.3333333 L8.33333333,13.3333333 L8.33333333,15.8333333 Z" id="Shape" fill="#5A6872"></path>
                    <path d="M35.8333333,24.1666667 L34.1666667,24.1666667 C33.7064294,24.1666667 33.3333333,23.7935706 33.3333333,23.3333333 C33.3333333,22.873096 33.7064294,22.5 34.1666667,22.5 L35.8333333,22.5 C36.2935706,22.5 36.6666667,22.873096 36.6666667,23.3333333 C36.6666667,23.7935706 36.2935706,24.1666667 35.8333333,24.1666667 Z" id="Path" fill="#5A6872"></path>
                </g>
            </g>
        </g>
    </g>
</svg>