<?xml version="1.0" encoding="UTF-8"?>
<svg width="12px" height="12px" viewBox="0 0 12 12" version="1.1" xmlns="http://www.w3.org/2000/svg" xmlns:xlink="http://www.w3.org/1999/xlink">
    <!-- Generator: sketchtool 63.1 (101010) - https://sketch.com -->
    <title>2EC8438A-4251-4DA7-AB40-A93FA8DE0E70</title>
    <desc>Created with sketchtool.</desc>
    <g id="Web" stroke="none" stroke-width="1" fill="none" fill-rule="evenodd">
        <g id="05-Delivery-Details" transform="translate(-886.000000, -1077.000000)" fill="#43A047">
            <g id="Group-13" transform="translate(500.000000, 166.000000)">
                <g id="Product-Description" transform="translate(0.000000, 878.000000)">
                    <g id="Group-10" transform="translate(296.000000, 24.000000)">
                        <g id="Cash-Badge" transform="translate(82.000000, 5.000000)">
                            <g id="ic_cash" transform="translate(8.000000, 4.000000)">
                                <path d="M1.2,0.666666667 C1.12207873,0.666923974 1.04436808,0.674676625 0.96796872,0.689814815 C0.9616134,0.691075852 0.95553948,0.693082607 0.94921872,0.694444444 C0.396219194,0.811162682 0.000767178409,1.29334775 0,1.85185185 L0,6.59259259 C0.000260515389,6.66955191 0.00811007471,6.74630321 0.0234375,6.82175941 C0.0247143,6.82803615 0.02674614,6.83403496 0.028125,6.84027793 C0.146302265,7.38645025 0.634514633,7.77702008 1.2,7.77777778 L10.8,7.77777778 C10.8779213,7.77752058 10.955632,7.76976802 11.0320314,7.75462993 C11.0383866,7.75336889 11.0444604,7.75136178 11.0507814,7.75 C11.6037809,7.63328171 11.9992328,7.15109666 12,6.59259259 L12,1.85185185 C11.9997396,1.77489258 11.9918901,1.69814133 11.9765628,1.62268516 C11.975286,1.6164083 11.9732538,1.61040936 11.971875,1.60416664 C11.8536978,1.05799427 11.3654854,0.667424374 10.8,0.666666667 L1.2,0.666666667 Z M2.4,1.85185185 L9.6,1.85185185 C9.6,2.50641156 10.1372583,3.03703704 10.8,3.03703704 L10.8,5.40740741 C10.1372583,5.40740741 9.6,5.93803289 9.6,6.59259259 L2.4,6.59259259 C2.4,5.93803289 1.8627417,5.40740741 1.2,5.40740741 L1.2,3.03703704 C1.8627417,3.03703704 2.4,2.50641156 2.4,1.85185185 Z M6,2.44444444 C5.00588745,2.44444444 4.2,3.24038267 4.2,4.22222222 C4.2,5.20406178 5.00588745,6 6,6 C6.99411255,6 7.8,5.20406178 7.8,4.22222222 C7.8,3.24038267 6.99411255,2.44444444 6,2.44444444 Z M3,3.62962963 C2.6688,3.62962963 2.4,3.89451852 2.4,4.22222222 C2.4,4.54992593 2.6688,4.81481481 3,4.81481481 C3.3312,4.81481481 3.6,4.54992593 3.6,4.22222222 C3.6,3.89451852 3.3312,3.62962963 3,3.62962963 Z M9,3.62962963 C8.6688,3.62962963 8.4,3.89451852 8.4,4.22222222 C8.4,4.54992593 8.6688,4.81481481 9,4.81481481 C9.3312,4.81481481 9.6,4.54992593 9.6,4.22222222 C9.6,3.89451852 9.3312,3.62962963 9,3.62962963 Z M0,8.7037037 L0,9.22222222 C1.04299691e-16,9.40631714 0.149238417,9.55555556 0.333333333,9.55555556 L11.6666667,9.55555556 C11.8507616,9.55555556 12,9.40631714 12,9.22222222 L12,8.7037037 C12,8.51960879 11.8507616,8.37037037 11.6666667,8.37037037 L0.333333333,8.37037037 C0.149238417,8.37037037 5.32566387e-16,8.51960879 0,8.7037037 Z M0,10.4814815 L0,11 C1.04299691e-16,11.1840949 0.149238417,11.3333333 0.333333333,11.3333333 L11.6666667,11.3333333 C11.8507616,11.3333333 12,11.1840949 12,11 L12,10.4814815 C12,10.2973866 11.8507616,10.1481481 11.6666667,10.1481481 L0.333333333,10.1481481 C0.149238417,10.1481481 5.32566387e-16,10.2973866 0,10.4814815 Z" id="ic_cash_payment"></path>
                            </g>
                        </g>
                    </g>
                </g>
            </g>
        </g>
    </g>
</svg>