<?xml version="1.0" encoding="UTF-8"?>
<svg width="16px" height="18px" viewBox="0 0 16 18" version="1.1" xmlns="http://www.w3.org/2000/svg" xmlns:xlink="http://www.w3.org/1999/xlink">
    <!-- Generator: sketchtool 63.1 (101010) - https://sketch.com -->
    <title>B196AFF3-C46B-4E0E-B947-64E5E1E9CA83</title>
    <desc>Created with sketchtool.</desc>
    <g id="Web" stroke="none" stroke-width="1" fill="none" fill-rule="evenodd">
        <g id="05-Delivery-Details" transform="translate(-1060.000000, -264.000000)" fill="#E83330">
            <g id="Group-13" transform="translate(500.000000, 166.000000)">
                <g id="Consignment-ID" transform="translate(0.000000, 72.000000)">
                    <g id="Order-ID" transform="translate(24.000000, 20.000000)">
                        <g id="Group-2">
                            <g>
                                <g id="Group" transform="translate(435.000000, 0.000000)">
                                    <g id="ic_copy" transform="translate(101.000000, 6.000000)">
                                        <path d="M11.0526316,0 L2.07894737,0 L2.07894737,0 C1.21052632,0 0.5,0.736363636 0.5,1.63636364 L0.5,12.5909091 C0.5,12.8670515 0.723857625,13.0909091 1,13.0909091 L1.57894737,13.0909091 C1.85508974,13.0909091 2.07894737,12.8670515 2.07894737,12.5909091 L2.07894737,1.63636364 L2.07894737,1.63636364 L11.0526316,1.63636364 C11.328774,1.63636364 11.5526316,1.41250601 11.5526316,1.13636364 L11.5526316,0.5 C11.5526316,0.223857625 11.328774,-5.07265313e-17 11.0526316,0 Z M10.5508019,3.27272727 L5.23684211,3.27272727 L5.23684211,3.27272727 C4.36842105,3.27272727 3.66578947,4.00909091 3.66578947,4.90909091 L3.65789474,16.3636364 C3.65789474,17.2636364 4.36052632,18 5.22894737,18 L13.9210526,18 C14.7894737,18 15.5,17.2636364 15.5,16.3636364 L15.5,8.38371441 C15.5,8.25419706 15.4497423,8.12973297 15.3598095,8.03652983 L10.9106114,3.42554269 C10.8163822,3.32788706 10.6865065,3.27272727 10.5508019,3.27272727 Z M5.23684211,15.8636364 L5.23684211,5.40909091 C5.23684211,5.13294853 5.46069973,4.90909091 5.73684211,4.90909091 L9.47368421,4.90909091 C9.74982659,4.90909091 9.97368421,5.13294853 9.97368421,5.40909091 L9.97368421,8.5 C9.97368421,8.77614237 10.1975418,9 10.4736842,9 L13.4210526,9 C13.697195,9 13.9210526,9.22385763 13.9210526,9.5 L13.9210526,15.8636364 C13.9210526,16.1397787 13.697195,16.3636364 13.4210526,16.3636364 L5.73684211,16.3636364 C5.46069973,16.3636364 5.23684211,16.1397787 5.23684211,15.8636364 Z" id="Icon-/-Outline-/-24px-/-ic_copy"></path>
                                    </g>
                                </g>
                            </g>
                        </g>
                    </g>
                </g>
            </g>
        </g>
    </g>
</svg>